<?xml version="1.0" encoding="utf-8"?>
<svg viewBox="0 0 360 140" xmlns="http://www.w3.org/2000/svg">
  <g transform="translate(0, 50)">
    <!-- G Letter (Blue shape) -->
    <path d="M 60 -50 C 30 -50 0 -20 0 20 C 0 60 30 90 60 90 L 100 90 L 100 50 L 60 50 C 45 50 35 40 35 20 C 35 0 45 -10 60 -10 C 75 -10 85 0 85 10 L 120 10 C 120 -30 95 -50 60 -50 Z" fill="#204DF4" />
    
    <!-- Squares (Cyan & Blue) -->
    <rect x="90" y="-30" width="20" height="20" fill="#38C6F4" />
    <rect x="115" y="-30" width="20" height="20" fill="#38C6F4" />
    <rect x="115" y="-5" width="20" height="20" fill="#38C6F4" />
    <rect x="115" y="20" width="20" height="30" fill="#204DF4" />
    
    <!-- Text: 港工 -->
    <text x="150" y="20" font-family="-apple-system, BlinkMacSystemFont, 'Segoe UI', Roboto, sans-serif" font-weight="800" font-size="65" fill="#1F2937">港工</text>
    
    <!-- Text: work4HK -->
    <text x="155" y="70" font-family="-apple-system, BlinkMacSystemFont, 'Segoe UI', Roboto, sans-serif" font-weight="700" font-size="45" fill="#374151" letter-spacing="-1">work4HK</text>
  </g>
</svg>
