<svg width="20" height="20" viewBox="0 0 24 24" fill="none" xmlns="http://www.w3.org/2000/svg">
  <rect width="24" height="24" rx="12" fill="#111111"/>
  <path d="M15.95 12.6C15.95 10.9 17.35 10.1 17.4 10.1C16.55 8.8 15.2 8.6 14.75 8.6C13.6 8.45 12.5 9.25 11.95 9.25C11.35 9.25 10.45 8.6 9.45 8.65C8.15 8.7 6.95 9.45 6.3 10.6C4.95 12.95 5.95 16.35 7.25 18.25C7.9 19.2 8.65 20.25 9.65 20.2C10.6 20.15 10.95 19.6 12.1 19.6C13.2 19.6 13.55 20.2 14.55 20.15C15.6 20.15 16.25 19.2 16.9 18.2C17.65 17.15 17.95 16.15 18 16.1C17.95 16.1 15.95 15.3 15.95 12.6Z" fill="white"/>
  <path d="M14 7.1C14.5 6.45 14.85 5.55 14.75 4.65C14 4.7 13.1 5.2 12.6 5.85C12.15 6.45 11.75 7.4 11.85 8.25C12.7 8.3 13.5 7.8 14 7.1Z" fill="white"/>
</svg>
