<svg width="20" height="20" viewBox="0 0 48 48" fill="none" xmlns="http://www.w3.org/2000/svg">
  <path d="M44.5 20H24V28.5H35.8C34.3 33.1 30.4 36.5 24 36.5C16.6 36.5 10.5 30.4 10.5 23C10.5 15.6 16.6 9.5 24 9.5C27.2 9.5 30 10.6 32.2 12.6L38.2 6.6C34.5 3.2 29.6 1 24 1C11.8 1 2 10.8 2 23C2 35.2 11.8 45 24 45C35.5 45 45 36.8 45 24C45 22.6 44.8 21.2 44.5 20Z" fill="#FFC107"/>
  <path d="M6.9 14.4L13.9 19.5C15.8 14.7 19.5 11.2 24 11.2C27.2 11.2 30 12.3 32.2 14.3L38.2 8.3C34.5 4.9 29.6 2.7 24 2.7C15.4 2.7 8 7.8 4.5 15.1L6.9 14.4Z" fill="#FF3D00"/>
  <path d="M24 45.3C29.4 45.3 34.2 43.5 37.8 40.3L31.2 34.7C29.1 36.1 26.7 36.9 24 36.9C17.7 36.9 13.8 33.5 12.2 29L5.3 34.3C8.8 41.8 16.2 45.3 24 45.3Z" fill="#4CAF50"/>
  <path d="M44.5 20H24V28.5H35.8C35.1 30.6 33.8 32.5 32.1 33.8L38.8 39.1C38.3 39.5 45 34.8 45 24C45 22.6 44.8 21.2 44.5 20Z" fill="#1976D2"/>
</svg>
